HIERARCHY
ROOT Hips
{
  OFFSET -0.108 -14.234 -306.974
  CHANNELS 6 Xposition Yposition Zposition Zrotation Xrotation Yrotation
  JOINT LeftUpLeg
  {
    OFFSET 5.890 -5.948 0.276
    CHANNELS 6 Xposition Yposition Zposition Zrotation Xrotation Yrotation
    JOINT LeftLeg
    {
      OFFSET 0.000 -45.882 0.000
      CHANNELS 6 Xposition Yposition Zposition Zrotation Xrotation Yrotation
      JOINT LeftFoot
      {
        OFFSET 0.000 -35.657 -0.000
        CHANNELS 6 Xposition Yposition Zposition Zrotation Xrotation Yrotation
        End Site
        {
          OFFSET 0.000 -7.467 4.311
        }
      }
    }
  }
  JOINT RightUpLeg
  {
    OFFSET -5.886 -6.564 2.267
    CHANNELS 6 Xposition Yposition Zposition Zrotation Xrotation Yrotation
    JOINT RightLeg
    {
      OFFSET 0.000 -47.046 0.000
      CHANNELS 6 Xposition Yposition Zposition Zrotation Xrotation Yrotation
      JOINT RightFoot
      {
        OFFSET 0.000 -35.865 -0.000
        CHANNELS 6 Xposition Yposition Zposition Zrotation Xrotation Yrotation
        End Site
        {
          OFFSET 0.000 -7.695 4.443
        }
      }
    }
  }
  JOINT Spine
  {
    OFFSET 0.000 6.064 -6.064
    CHANNELS 6 Xposition Yposition Zposition Zrotation Xrotation Yrotation
    JOINT LeftShoulder
    {
      OFFSET -0.000 34.359 0.000
      CHANNELS 6 Xposition Yposition Zposition Zrotation Xrotation Yrotation
      JOINT LeftArm
      {
        OFFSET 13.104 0.000 -0.000
        CHANNELS 6 Xposition Yposition Zposition Zrotation Xrotation Yrotation
        JOINT LeftForeArm
        {
          OFFSET 26.563 0.000 0.000
          CHANNELS 6 Xposition Yposition Zposition Zrotation Xrotation Yrotation
          JOINT LeftHand
          {
            OFFSET 26.750 0.000 -0.000
            CHANNELS 6 Xposition Yposition Zposition Zrotation Xrotation Yrotation
            JOINT LeftHandThumb1
            {
            OFFSET 4.970 -0.620 3.390
            CHANNELS 6 Xposition Yposition Zposition Zrotation Xrotation Yrotation
              JOINT LeftHandThumb2
              {
              OFFSET 2.150 -0.000 0.000
              CHANNELS 6 Xposition Yposition Zposition Zrotation Xrotation Yrotation
                JOINT LeftHandThumb3
                {
                OFFSET 2.200 -0.000 0.000
                CHANNELS 6 Xposition Yposition Zposition Zrotation Xrotation Yrotation
                  JOINT LeftHandThumb4
                  {
                  OFFSET 1.700 -0.000 0.000
                  CHANNELS 6 Xposition Yposition Zposition Zrotation Xrotation Yrotation
                  }
                }
              }
            }
            JOINT LeftHandIndex1
            {
            OFFSET 8.730 0.680 2.070
            CHANNELS 6 Xposition Yposition Zposition Zrotation Xrotation Yrotation
              JOINT LeftHandIndex2
              {
              OFFSET 2.670 -0.000 0.000
              CHANNELS 6 Xposition Yposition Zposition Zrotation Xrotation Yrotation
                JOINT LeftHandIndex3
                {
                OFFSET 2.130 -0.000 0.000
                CHANNELS 6 Xposition Yposition Zposition Zrotation Xrotation Yrotation
                  JOINT LeftHandIndex4
                  {
                  OFFSET 1.800 -0.000 0.000
                  CHANNELS 6 Xposition Yposition Zposition Zrotation Xrotation Yrotation
                  }
                }
              }
            }
            JOINT LeftHandMiddle1
            {
            OFFSET 9.220 0.670 0.550
            CHANNELS 6 Xposition Yposition Zposition Zrotation Xrotation Yrotation
              JOINT LeftHandMiddle2
              {
              OFFSET 2.660 -0.000 0.000
              CHANNELS 6 Xposition Yposition Zposition Zrotation Xrotation Yrotation
                JOINT LeftHandMiddle3
                {
                OFFSET 2.280 -0.000 0.000
                CHANNELS 6 Xposition Yposition Zposition Zrotation Xrotation Yrotation
                  JOINT LeftHandMiddle4
                  {
                  OFFSET 1.500 -0.000 0.000
                  CHANNELS 6 Xposition Yposition Zposition Zrotation Xrotation Yrotation
                  }
                }
              }
            }
            JOINT LeftHandRing1
            {
            OFFSET 9.250 0.670 -1.130
            CHANNELS 6 Xposition Yposition Zposition Zrotation Xrotation Yrotation
              JOINT LeftHandRing2
              {
              OFFSET 2.470 -0.000 0.000
              CHANNELS 6 Xposition Yposition Zposition Zrotation Xrotation Yrotation
                JOINT LeftHandRing3
                {
                OFFSET 2.210 -0.000 0.000
                CHANNELS 6 Xposition Yposition Zposition Zrotation Xrotation Yrotation
                  JOINT LeftHandRing4
                  {
                  OFFSET 1.800 -0.000 0.000
                  CHANNELS 6 Xposition Yposition Zposition Zrotation Xrotation Yrotation
                  }
                }
              }
            }
            JOINT LeftHandPinky1
            {
            OFFSET 9.350 0.660 -2.720
            CHANNELS 6 Xposition Yposition Zposition Zrotation Xrotation Yrotation
              JOINT LeftHandPinky2
              {
              OFFSET 1.630 -0.000 0.000
              CHANNELS 6 Xposition Yposition Zposition Zrotation Xrotation Yrotation
                JOINT LeftHandPinky3
                {
                OFFSET 1.710 -0.000 0.000
                CHANNELS 6 Xposition Yposition Zposition Zrotation Xrotation Yrotation
                  JOINT LeftHandPinky4
                  {
                  OFFSET 1.800 -0.000 0.000
                  CHANNELS 6 Xposition Yposition Zposition Zrotation Xrotation Yrotation
                  }
                }
              }
            }
          }
        }
      }
    }
    JOINT RightShoulder
    {
      OFFSET -0.000 34.359 0.000
      CHANNELS 6 Xposition Yposition Zposition Zrotation Xrotation Yrotation
      JOINT RightArm
      {
        OFFSET -19.433 0.000 -0.000
        CHANNELS 6 Xposition Yposition Zposition Zrotation Xrotation Yrotation
        JOINT RightForeArm
        {
          OFFSET -25.473 0.000 0.000
          CHANNELS 6 Xposition Yposition Zposition Zrotation Xrotation Yrotation
          JOINT RightHand
          {
            OFFSET -26.492 0.000 -0.000
            CHANNELS 6 Xposition Yposition Zposition Zrotation Xrotation Yrotation
            JOINT RightHandThumb1
            {
            OFFSET -4.970 -0.620 3.390
            CHANNELS 6 Xposition Yposition Zposition Zrotation Xrotation Yrotation
              JOINT RightHandThumb2
              {
              OFFSET -2.150 0.000 0.000
              CHANNELS 6 Xposition Yposition Zposition Zrotation Xrotation Yrotation
                JOINT RightHandThumb3
                {
                OFFSET -2.200 0.000 0.000
                CHANNELS 6 Xposition Yposition Zposition Zrotation Xrotation Yrotation
                  JOINT RightHandThumb4
                  {
                  OFFSET -1.700 0.000 0.000
                  CHANNELS 6 Xposition Yposition Zposition Zrotation Xrotation Yrotation
                  }
                }
              }
            }
            JOINT RightHandIndex1
            {
            OFFSET -8.730 0.680 2.070
            CHANNELS 6 Xposition Yposition Zposition Zrotation Xrotation Yrotation
              JOINT RightHandIndex2
              {
              OFFSET -2.670 0.000 0.000
              CHANNELS 6 Xposition Yposition Zposition Zrotation Xrotation Yrotation
                JOINT RightHandIndex3
                {
                OFFSET -2.130 0.000 0.000
                CHANNELS 6 Xposition Yposition Zposition Zrotation Xrotation Yrotation
                  JOINT RightHandIndex4
                  {
                  OFFSET -1.800 0.000 0.000
                  CHANNELS 6 Xposition Yposition Zposition Zrotation Xrotation Yrotation
                  }
                }
              }
            }
            JOINT RightHandMiddle1
            {
            OFFSET -9.220 0.670 0.550
            CHANNELS 6 Xposition Yposition Zposition Zrotation Xrotation Yrotation
              JOINT RightHandMiddle2
              {
              OFFSET -2.660 0.000 0.000
              CHANNELS 6 Xposition Yposition Zposition Zrotation Xrotation Yrotation
                JOINT RightHandMiddle3
                {
                OFFSET -2.280 0.000 0.000
                CHANNELS 6 Xposition Yposition Zposition Zrotation Xrotation Yrotation
                  JOINT RightHandMiddle4
                  {
                  OFFSET -1.500 0.000 0.000
                  CHANNELS 6 Xposition Yposition Zposition Zrotation Xrotation Yrotation
                  }
                }
              }
            }
            JOINT RightHandRing1
            {
            OFFSET -9.250 0.670 -1.130
            CHANNELS 6 Xposition Yposition Zposition Zrotation Xrotation Yrotation
              JOINT RightHandRing2
              {
              OFFSET -2.470 0.000 0.000
              CHANNELS 6 Xposition Yposition Zposition Zrotation Xrotation Yrotation
                JOINT RightHandRing3
                {
                OFFSET -2.210 0.000 0.000
                CHANNELS 6 Xposition Yposition Zposition Zrotation Xrotation Yrotation
                  JOINT RightHandRing4
                  {
                  OFFSET -1.800 0.000 0.000
                  CHANNELS 6 Xposition Yposition Zposition Zrotation Xrotation Yrotation
                  }
                }
              }
            }
            JOINT RightHandPinky1
            {
            OFFSET -9.350 0.660 -2.720
            CHANNELS 6 Xposition Yposition Zposition Zrotation Xrotation Yrotation
              JOINT RightHandPinky2
              {
              OFFSET -1.630 0.000 0.000
              CHANNELS 6 Xposition Yposition Zposition Zrotation Xrotation Yrotation
                JOINT RightHandPinky3
                {
                OFFSET -1.710 0.000 0.000
                CHANNELS 6 Xposition Yposition Zposition Zrotation Xrotation Yrotation
                  JOINT RightHandPinky4
                  {
                  OFFSET -1.800 0.000 0.000
                  CHANNELS 6 Xposition Yposition Zposition Zrotation Xrotation Yrotation
                  }
                }
              }
            }
          }
        }
      }
    }
    JOINT Neck
    {
      OFFSET -0.000 34.359 0.000
      CHANNELS 6 Xposition Yposition Zposition Zrotation Xrotation Yrotation
      JOINT Head
      {
        OFFSET -0.000 20.262 -0.000
        CHANNELS 6 Xposition Yposition Zposition Zrotation Xrotation Yrotation
        End Site
        {
          OFFSET -0.000 0.081 -0.000
        }
      }
    }
  }
}
MOTION
Frames:	4
Frame Time:	0.0333333
0.554741 -2.64591 -308.855 -0.235471 -16.8117 -7.64965 5.86365 -7.90084 -1.75529 -0.248852 11.0167 21.5491 -5.96046e-06 -51.5597 -2.38419e-05 -0.207663 2.68883 0.00974802 -1.19209e-05 -40.0632 0 -15.5519 -25.0767 -14.9868 -5.94279 -8.60787 2.84567 -3.09218 11.5462 22.1211 -1.19209e-05 -51.8184 7.15256e-05 3.79325 3.2929 -0.218208 0 -41.3405 0 -12.8669 -11.4235 -9.82417 5.96046e-06 5.07823 -5.07824 -1.18556 8.16403 4.15867 -2.98023e-06 34.359 2.38419e-05 -2.36587 1.45141e-05 -8.40351 11.8788 0 0 29.4744 -67.8312 -61.1076 25.6107 0 4.84288e-06 4.39568 -0.629891 -8.13872 23.8998 -4.76837e-05 1.49012e-06 -23.9878 -0.148717 11.0892 0.0062 0.0497 0.0339 -33.8604 0 0 0 0.0215 0 0 -33.8604 0 0 0.022 0 0 -33.8604 0 0 0.017 0 0 0 0 -0.0068 0.0873 0.0207 -33.8604 0 0 0 0.0267 0 -60.1963 0 0 0 0.0213 0 -67.7208 0 0 0 0.018 0 0 0 0 -0.0067 0.0922 0.0055 -33.8604 0 0 0 0.0266 0 -60.1963 0 0 0 0.0228 0 -67.7208 0 0 0 0.015 0 0 0 0 -0.0067 0.0925 -0.0113 -33.8604 0 0 0 0.0247 0 -60.1963 0 0 0 0.0221 0 -67.7208 0 0 0 0.018 0 0 0 0 -0.0066 0.0935 -0.0272 -33.8604 0 0 0 0.0163 0 -60.1963 0 0 0 0.0171 0 -67.7208 0 0 0 0.018 0 0 0 0 -2.98023e-06 34.359 2.38419e-05 8.34849 2.56132e-06 5.44304 -18.3015 5.96046e-06 0 57.1484 -43.5357 138.878 -24.3794 -2.38419e-05 -3.57628e-05 9.67387e-06 -3.41509e-06 22.0521 -26.8351 2.38419e-05 7.15256e-05 0.120184 0.083077 -14.4784 -0.0062 0.0497 0.0339 0 0 0 0 0.0215 0 0 0 0 0 0.022 0 0 0 0 0 0.017 0 0 0 0 0.0068 0.0873 0.0207 0 0 0 0 0.0267 0 0 0 0 0 0.0213 0 0 0 0 0 0.018 0 0 0 0 0.0067 0.0922 0.0055 0 0 0 0 0.0266 0 0 0 0 0 0.0228 0 0 0 0 0 0.015 0 0 0 0 0.0067 0.0925 -0.0113 0 0 0 0 0.0247 0 0 0 0 0 0.0221 0 0 0 0 0 0.018 0 0 0 0 0.0066 0.0935 -0.0272 0 0 0 0 0.0163 0 0 0 0 0 0.0171 0 0 0 0 0 0.018 0 0 0 0 -2.98023e-06 34.359 2.38419e-05 30.8655 -2.0859 1.24621 -2.98023e-06 10.9487 0 1.24331e-05 -1.19528e-05 -6.4033e-07 
0.903211 -2.74472 -308.724 -0.709551 -15.9642 -6.86028 6.15507 -7.78748 -1.57323 -0.0744766 10.0932 20.2391 0 -51.6816 2.38419e-05 0.334753 2.86035 -0.0167095 -5.96046e-06 -39.7544 -7.15256e-05 -15.325 -25.5072 -14.8476 -6.04335 -8.61036 2.84536 -2.51924 10.6586 20.7095 0 -51.8577 4.76837e-05 4.08688 3.66638 -0.261779 1.19209e-05 -40.8935 -2.38419e-05 -13.0206 -13.8124 -10.3832 -5.96046e-06 5.13876 -5.13883 -1.72985 7.29933 2.63644 0 34.359 0 -0.47397 9.39151e-06 -4.00288 12.2984 -1.19209e-05 2.38419e-05 -9.77892 -73.1498 -100.699 26.5334 0 0 2.62314 -0.238725 -5.19615 23.9805 0 8.9407e-06 -19.7831 -0.308793 13.0958 0.0062 0.0497 0.0339 -14.8781 0 0 0 0.0215 0 0 -14.8781 0 0 0.022 0 0 -14.8781 0 0 0.017 0 0 0 0 -0.0068 0.0873 0.0207 -14.8781 0 0 0 0.0267 0 -26.45 0 0 0 0.0213 0 -29.7563 0 0 0 0.018 0 0 0 0 -0.0067 0.0922 0.0055 -14.8781 0 0 0 0.0266 0 -26.45 0 0 0 0.0228 0 -29.7563 0 0 0 0.015 0 0 0 0 -0.0067 0.0925 -0.0113 -14.8781 0 0 0 0.0247 0 -26.45 0 0 0 0.0221 0 -29.7563 0 0 0 0.018 0 0 0 0 -0.0066 0.0935 -0.0272 -14.8781 0 0 0 0.0163 0 -26.45 0 0 0 0.0171 0 -29.7563 0 0 0 0.018 0 0 0 0 0 34.359 0 6.16065 -4.26887e-06 2.55505 -19.258 1.19209e-05 0 69.2007 -36.8688 146.791 -26.0135 -4.76837e-05 -4.76837e-05 1.12586e-05 -6.83019e-06 22.8076 -25.6855 0 0 -3.14978 0.281448 -10.8986 -0.0062 0.0497 0.0339 0 0 0 0 0.0215 0 0 0 0 0 0.022 0 0 0 0 0 0.017 0 0 0 0 0.0068 0.0873 0.0207 0 0 0 0 0.0267 0 0 0 0 0 0.0213 0 0 0 0 0 0.018 0 0 0 0 0.0067 0.0922 0.0055 0 0 0 0 0.0266 0 0 0 0 0 0.0228 0 0 0 0 0 0.015 0 0 0 0 0.0067 0.0925 -0.0113 0 0 0 0 0.0247 0 0 0 0 0 0.0221 0 0 0 0 0 0.018 0 0 0 0 0.0066 0.0935 -0.0272 0 0 0 0 0.0163 0 0 0 0 0 0.0171 0 0 0 0 0 0.018 0 0 0 0 0 34.359 0 35.691 -1.75163 1.25786 0 11.4032 2.38419e-05 7.68396e-06 -6.83019e-06 -1.06722e-06 
0.903211 -2.74472 -308.724 -0.709551 -15.9642 -6.86028 6.15507 -7.78748 -1.57323 -0.0744766 10.0932 20.2391 0 -51.6816 2.38419e-05 0.334753 2.86035 -0.0167095 -5.96046e-06 -39.7544 -7.15256e-05 -15.325 -25.5072 -14.8476 -6.04335 -8.61036 2.84536 -2.51924 10.6586 20.7095 0 -51.8577 4.76837e-05 4.08688 3.66638 -0.261779 1.19209e-05 -40.8935 -2.38419e-05 -13.0206 -13.8124 -10.3832 -5.96046e-06 5.13876 -5.13883 -1.72985 7.29933 2.63644 0 34.359 0 -0.47397 9.39151e-06 -4.00288 12.2984 -1.19209e-05 2.38419e-05 -9.77892 -73.1498 -100.699 26.5334 0 0 2.62314 -0.238725 -5.19615 23.9805 0 8.9407e-06 -19.7831 -0.308793 13.0958 0.0062 0.0497 0.0339 -14.8781 0 0 0 0.0215 0 0 -14.8781 0 0 0.022 0 0 -14.8781 0 0 0.017 0 0 0 0 -0.0068 0.0873 0.0207 -14.8781 0 0 0 0.0267 0 -26.45 0 0 0 0.0213 0 -29.7563 0 0 0 0.018 0 0 0 0 -0.0067 0.0922 0.0055 -14.8781 0 0 0 0.0266 0 -26.45 0 0 0 0.0228 0 -29.7563 0 0 0 0.015 0 0 0 0 -0.0067 0.0925 -0.0113 -14.8781 0 0 0 0.0247 0 -26.45 0 0 0 0.0221 0 -29.7563 0 0 0 0.018 0 0 0 0 -0.0066 0.0935 -0.0272 -14.8781 0 0 0 0.0163 0 -26.45 0 0 0 0.0171 0 -29.7563 0 0 0 0.018 0 0 0 0 0 34.359 0 6.16065 -4.26887e-06 2.55505 -19.258 1.19209e-05 0 69.2007 -36.8688 146.791 -26.0135 -4.76837e-05 -4.76837e-05 1.12586e-05 -6.83019e-06 22.8076 -25.6855 0 0 -3.14978 0.281448 -10.8986 -0.0062 0.0497 0.0339 0 0 0 0 0.0215 0 0 0 0 0 0.022 0 0 0 0 0 0.017 0 0 0 0 0.0068 0.0873 0.0207 0 0 0 0 0.0267 0 0 0 0 0 0.0213 0 0 0 0 0 0.018 0 0 0 0 0.0067 0.0922 0.0055 0 0 0 0 0.0266 0 0 0 0 0 0.0228 0 0 0 0 0 0.015 0 0 0 0 0.0067 0.0925 -0.0113 0 0 0 0 0.0247 0 0 0 0 0 0.0221 0 0 0 0 0 0.018 0 0 0 0 0.0066 0.0935 -0.0272 0 0 0 0 0.0163 0 0 0 0 0 0.0171 0 0 0 0 0 0.018 0 0 0 0 0 34.359 0 35.691 -1.75163 1.25786 0 11.4032 2.38419e-05 7.68396e-06 -6.83019e-06 -1.06722e-06 
1.00033 -3.82172 -308.347 -0.731926 -14.3211 -6.50363 6.08078 -7.14051 -1.44417 0.201785 8.41213 21.3454 -1.19209e-05 -51.6195 7.15256e-05 0.421788 2.99383 -0.0220284 -5.96046e-06 -39.2825 0 -15.4575 -25.6473 -15.0111 -5.89544 -8.05726 3.15895 -2.49583 9.3117 21.8222 -5.96046e-06 -51.6605 4.76837e-05 4.37135 3.30812 -0.252744 0 -40.3335 -2.38419e-05 -13.3754 -15.1312 -10.9093 0 5.30571 -5.30574 -1.61082 5.35977 2.12367 -1.49012e-06 34.359 0 -0.584197 1.19528e-05 -2.26944 11.6226 0 0 4.9438 -74.3789 -85.4739 27.0911 2.38419e-05 -1.49012e-06 3.3792 -0.314063 -5.30346 24.789 0 -4.47035e-06 -19.3812 -0.243151 12.751 0.0062 0.0497 0.0339 -8.57236 0 0 0 0.0215 0 0 -8.57236 0 0 0.022 0 0 -8.57236 0 0 0.017 0 0 0 0 -0.0068 0.0873 0.0207 -8.57236 0 0 0 0.0267 0 -15.2398 0 0 0 0.0213 0 -17.1447 0 0 0 0.018 0 0 0 0 -0.0067 0.0922 0.0055 -8.57236 0 0 0 0.0266 0 -15.2398 0 0 0 0.0228 0 -17.1447 0 0 0 0.015 0 0 0 0 -0.0067 0.0925 -0.0113 -8.57236 0 0 0 0.0247 0 -15.2398 0 0 0 0.0221 0 -17.1447 0 0 0 0.018 0 0 0 0 -0.0066 0.0935 -0.0272 -8.57236 0 0 0 0.0163 0 -15.2398 0 0 0 0.0171 0 -17.1447 0 0 0 0.018 0 0 0 0 -1.49012e-06 34.359 0 5.60332 8.53774e-07 1.4087 -18.721 1.19209e-05 4.76837e-05 71.577 -38.6072 146.636 -25.6433 2.38419e-05 4.76837e-05 1.92431e-06 1.70755e-06 24.1582 -26.3968 4.76837e-05 2.38419e-05 -6.19417 0.349956 -7.43003 -0.0062 0.0497 0.0339 0 0 0 0 0.0215 0 0 0 0 0 0.022 0 0 0 0 0 0.017 0 0 0 0 0.0068 0.0873 0.0207 0 0 0 0 0.0267 0 0 0 0 0 0.0213 0 0 0 0 0 0.018 0 0 0 0 0.0067 0.0922 0.0055 0 0 0 0 0.0266 0 0 0 0 0 0.0228 0 0 0 0 0 0.015 0 0 0 0 0.0067 0.0925 -0.0113 0 0 0 0 0.0247 0 0 0 0 0 0.0221 0 0 0 0 0 0.018 0 0 0 0 0.0066 0.0935 -0.0272 0 0 0 0 0.0163 0 0 0 0 0 0.0171 0 0 0 0 0 0.018 0 0 0 0 -1.49012e-06 34.359 0 34.3047 -1.09475 0.746838 -2.98023e-06 12.1705 2.38419e-05 1.47009e-05 -9.39151e-06 2.13443e-07 
